<svg width="12" height="13" viewBox="0 0 12 13" fill="none" xmlns="http://www.w3.org/2000/svg">
<g filter="url(#filter0_b_15_147)">
<path d="M1.2 11.814H3.877V7.83036C3.877 7.62796 3.94627 7.45823 4.0848 7.32119C4.22347 7.18427 4.3952 7.11581 4.6 7.11581H7.4C7.6048 7.11581 7.77653 7.18427 7.9152 7.32119C8.05373 7.45823 8.123 7.62796 8.123 7.83036V11.814H10.8V4.81978C10.8 4.77932 10.791 4.74263 10.773 4.70968C10.7551 4.67674 10.7308 4.64755 10.7 4.62212L6.1462 1.23914C6.10513 1.20369 6.0564 1.18597 6 1.18597C5.9436 1.18597 5.89487 1.20369 5.8538 1.23914L1.3 4.62212C1.2692 4.64755 1.24487 4.67674 1.227 4.70968C1.209 4.74263 1.2 4.77932 1.2 4.81978V11.814ZM0 11.814V4.81978C0 4.59352 0.0511999 4.37919 0.1536 4.17679C0.256133 3.97425 0.397733 3.80749 0.5784 3.6765L5.1324 0.285819C5.38507 0.0952733 5.67387 0 5.9988 0C6.32373 0 6.61333 0.0952733 6.8676 0.285819L11.4216 3.6765C11.6023 3.80749 11.7439 3.97425 11.8464 4.17679C11.9488 4.37919 12 4.59352 12 4.81978V11.814C12 12.1374 11.8818 12.4159 11.6454 12.6495C11.409 12.8832 11.1272 13 10.8 13H7.6462C7.44127 13 7.26953 12.9315 7.131 12.7944C6.99233 12.6575 6.923 12.4878 6.923 12.2853V8.30178H5.077V12.2853C5.077 12.4878 5.00767 12.6575 4.869 12.7944C4.73047 12.9315 4.55873 13 4.3538 13H1.2C0.8728 13 0.591 12.8832 0.3546 12.6495C0.1182 12.4159 0 12.1374 0 11.814Z" fill="white"/>
</g>
<defs>
<filter id="filter0_b_15_147" x="-4" y="-4" width="20" height="21" filterUnits="userSpaceOnUse" color-interpolation-filters="sRGB">
<feFlood flood-opacity="0" result="BackgroundImageFix"/>
<feGaussianBlur in="BackgroundImageFix" stdDeviation="2"/>
<feComposite in2="SourceAlpha" operator="in" result="effect1_backgroundBlur_15_147"/>
<feBlend mode="normal" in="SourceGraphic" in2="effect1_backgroundBlur_15_147" result="shape"/>
</filter>
</defs>
</svg>
