<svg width="60" height="65" viewBox="0 0 60 65" fill="none" xmlns="http://www.w3.org/2000/svg">
<g filter="url(#filter0_b_39_18)">
<path d="M6 59.0702H19.385V39.1518C19.385 38.1398 19.7313 37.2912 20.424 36.6059C21.1173 35.9214 21.976 35.5791 23 35.5791H37C38.024 35.5791 38.8827 35.9214 39.576 36.6059C40.2687 37.2912 40.615 38.1398 40.615 39.1518V59.0702H54V24.0989C54 23.8966 53.955 23.7131 53.865 23.5484C53.7757 23.3837 53.654 23.2377 53.5 23.1106L30.731 6.1957C30.5257 6.01846 30.282 5.92985 30 5.92985C29.718 5.92985 29.4743 6.01846 29.269 6.1957L6.5 23.1106C6.346 23.2377 6.22433 23.3837 6.135 23.5484C6.045 23.7131 6 23.8966 6 24.0989V59.0702ZM0 59.0702V24.0989C0 22.9676 0.255999 21.896 0.767999 20.8839C1.28067 19.8712 1.98867 19.0374 2.892 18.3825L25.662 1.42909C26.9253 0.476366 28.3693 0 29.994 0C31.6187 0 33.0667 0.476366 34.338 1.42909L57.108 18.3825C58.0113 19.0374 58.7193 19.8712 59.232 20.8839C59.744 21.896 60 22.9676 60 24.0989V59.0702C60 60.687 59.409 62.0796 58.227 63.2477C57.045 64.4159 55.636 65 54 65H38.231C37.2063 65 36.3477 64.6574 35.655 63.9722C34.9617 63.2876 34.615 62.439 34.615 61.4263V41.5089H25.385V61.4263C25.385 62.439 25.0383 63.2876 24.345 63.9722C23.6523 64.6574 22.7937 65 21.769 65H6C4.364 65 2.955 64.4159 1.773 63.2477C0.591 62.0796 0 60.687 0 59.0702Z" fill="white"/>
<path d="M6 59.0702H19.385V39.1518C19.385 38.1398 19.7313 37.2912 20.424 36.6059C21.1173 35.9214 21.976 35.5791 23 35.5791H37C38.024 35.5791 38.8827 35.9214 39.576 36.6059C40.2687 37.2912 40.615 38.1398 40.615 39.1518V59.0702H54V24.0989C54 23.8966 53.955 23.7131 53.865 23.5484C53.7757 23.3837 53.654 23.2377 53.5 23.1106L30.731 6.1957C30.5257 6.01846 30.282 5.92985 30 5.92985C29.718 5.92985 29.4743 6.01846 29.269 6.1957L6.5 23.1106C6.346 23.2377 6.22433 23.3837 6.135 23.5484C6.045 23.7131 6 23.8966 6 24.0989V59.0702Z" fill="white"/>
</g>
<defs>
<filter id="filter0_b_39_18" x="-4" y="-4" width="68" height="73" filterUnits="userSpaceOnUse" color-interpolation-filters="sRGB">
<feFlood flood-opacity="0" result="BackgroundImageFix"/>
<feGaussianBlur in="BackgroundImageFix" stdDeviation="2"/>
<feComposite in2="SourceAlpha" operator="in" result="effect1_backgroundBlur_39_18"/>
<feBlend mode="normal" in="SourceGraphic" in2="effect1_backgroundBlur_39_18" result="shape"/>
</filter>
</defs>
</svg>
