<svg width="11" height="10" viewBox="0 0 11 10" fill="none" xmlns="http://www.w3.org/2000/svg">
<path d="M8.95139 8.68166L10.1104 9.84023C10.2752 10.005 10.4646 10.0423 10.6788 9.95222C10.8929 9.86203 11 9.69968 11 9.46518V1.04629C11 0.753906 10.8987 0.50643 10.6961 0.303858C10.4934 0.101286 10.2459 0 9.95341 0H1.04659C0.754127 0 0.506579 0.101286 0.303947 0.303858C0.101315 0.50643 0 0.753906 0 1.04629V7.63538C0 7.92776 0.101315 8.17523 0.303947 8.3778C0.506579 8.58038 0.754127 8.68166 1.04659 8.68166H8.95139ZM9.32105 7.8135H1.04659C1.00201 7.8135 0.961197 7.79493 0.924145 7.75779C0.886995 7.72075 0.868422 7.67994 0.868422 7.63538V1.04629C0.868422 1.00172 0.886995 0.960915 0.924145 0.923873C0.961197 0.886735 1.00201 0.868166 1.04659 0.868166H9.95341C9.99799 0.868166 10.0388 0.886735 10.0759 0.923873C10.113 0.960915 10.1316 1.00172 10.1316 1.04629V8.61496L9.32105 7.8135Z" fill="white"/>
<path d="M9.32105 7.8135H1.04659C1.00201 7.8135 0.961197 7.79493 0.924145 7.75779C0.886995 7.72075 0.868422 7.67994 0.868422 7.63538V1.04629C0.868422 1.00172 0.886995 0.960915 0.924145 0.923873C0.961197 0.886735 1.00201 0.868166 1.04659 0.868166H9.95341C9.99799 0.868166 10.0388 0.886735 10.0759 0.923873C10.113 0.960915 10.1316 1.00172 10.1316 1.04629V7.8135V8.61496L9.32105 7.8135Z" fill="white"/>
</svg>
