<svg width="12" height="12" viewBox="0 0 12 12" fill="none" xmlns="http://www.w3.org/2000/svg">
<path d="M6 5.74732C5.23 5.74732 4.57087 5.46598 4.0226 4.90329C3.4742 4.34046 3.2 3.66392 3.2 2.87366C3.2 2.0834 3.4742 1.40693 4.0226 0.844241C4.57087 0.281414 5.23 0 6 0C6.77 0 7.42913 0.281414 7.9774 0.844241C8.5258 1.40693 8.8 2.0834 8.8 2.87366C8.8 3.66392 8.5258 4.34046 7.9774 4.90329C7.42913 5.46598 6.77 5.74732 6 5.74732ZM0 10.7526V10.1746C0 9.77257 0.1064 9.40023 0.3192 9.05758C0.532 8.71493 0.8164 8.45151 1.1724 8.26732C1.96307 7.86952 2.76073 7.57114 3.5654 7.37217C4.37007 7.17321 5.1816 7.07372 6 7.07372C6.8184 7.07372 7.62993 7.17321 8.4346 7.37217C9.23927 7.57114 10.0369 7.86952 10.8276 8.26732C11.1836 8.45151 11.468 8.71493 11.6808 9.05758C11.8936 9.40023 12 9.77257 12 10.1746V10.7526C12 11.0988 11.8818 11.3933 11.6454 11.6361C11.409 11.8787 11.1221 12 10.7846 12H1.2154C0.877933 12 0.591 11.8787 0.3546 11.6361C0.1182 11.3933 0 11.0988 0 10.7526ZM1.2 10.7684H10.8V10.1746C10.8 10.0083 10.7531 9.8544 10.6592 9.71277C10.5653 9.57128 10.4379 9.45578 10.277 9.36629C9.58767 9.01789 8.88487 8.75393 8.1686 8.57439C7.4522 8.39499 6.72933 8.30529 6 8.30529C5.27067 8.30529 4.5478 8.39499 3.8314 8.57439C3.11513 8.75393 2.41233 9.01789 1.723 9.36629C1.56207 9.45578 1.43467 9.57128 1.3408 9.71277C1.24693 9.8544 1.2 10.0083 1.2 10.1746V10.7684ZM6 4.51575C6.44 4.51575 6.81667 4.35497 7.13 4.03339C7.44333 3.71181 7.6 3.32524 7.6 2.87366C7.6 2.42209 7.44333 2.03551 7.13 1.71393C6.81667 1.39236 6.44 1.23157 6 1.23157C5.56 1.23157 5.18333 1.39236 4.87 1.71393C4.55667 2.03551 4.4 2.42209 4.4 2.87366C4.4 3.32524 4.55667 3.71181 4.87 4.03339C5.18333 4.35497 5.56 4.51575 6 4.51575Z" fill="white"/>
<path d="M1.2 10.7684H10.8V10.1746C10.8 10.0083 10.7531 9.8544 10.6592 9.71277C10.5653 9.57128 10.4379 9.45578 10.277 9.36629C9.58767 9.01789 8.88487 8.75393 8.1686 8.57439C7.4522 8.39499 6.72933 8.30529 6 8.30529C5.27067 8.30529 4.5478 8.39499 3.8314 8.57439C3.11513 8.75393 2.41233 9.01789 1.723 9.36629C1.56207 9.45578 1.43467 9.57128 1.3408 9.71277C1.24693 9.8544 1.2 10.0083 1.2 10.1746V10.7684Z" fill="white"/>
<path d="M6 4.51575C6.44 4.51575 6.81667 4.35497 7.13 4.03339C7.44333 3.71181 7.6 3.32524 7.6 2.87366C7.6 2.42209 7.44333 2.03551 7.13 1.71393C6.81667 1.39236 6.44 1.23157 6 1.23157C5.56 1.23157 5.18333 1.39236 4.87 1.71393C4.55667 2.03551 4.4 2.42209 4.4 2.87366C4.4 3.32524 4.55667 3.71181 4.87 4.03339C5.18333 4.35497 5.56 4.51575 6 4.51575Z" fill="white"/>
</svg>
