<svg width="60" height="60" viewBox="0 0 60 60" fill="none" xmlns="http://www.w3.org/2000/svg">
<path d="M25.6906 51.3671C18.5166 51.3671 12.4411 48.8797 7.46426 43.9049C2.48808 38.9294 0 32.8556 0 25.6835C0 18.5115 2.48808 12.4377 7.46426 7.4622C12.4411 2.4874 18.5166 0 25.6906 0C32.8646 0 38.9401 2.4874 43.917 7.4622C48.8931 12.4377 51.3812 18.5115 51.3812 25.6835C51.3812 28.683 50.8778 31.5477 49.8709 34.2776C48.8634 37.0076 47.5194 39.3819 45.839 41.4007L59.1068 54.6619C59.6887 55.2429 59.9863 55.9737 59.9996 56.8543C60.0129 57.7348 59.7153 58.4793 59.1068 59.0876C58.4984 59.6959 57.7604 60 56.8929 60C56.0261 60 55.2884 59.6959 54.68 59.0876L41.4121 45.8263C39.3115 47.5602 36.8959 48.9171 34.1652 49.8971C31.4345 50.8771 28.6097 51.3671 25.6906 51.3671ZM25.6906 45.0682C31.1037 45.0682 35.6885 43.1902 39.4449 39.4341C43.2021 35.6786 45.0807 31.0951 45.0807 25.6835C45.0807 20.2719 43.2021 15.6884 39.4449 11.933C35.6885 8.17688 31.1037 6.29882 25.6906 6.29882C20.2775 6.29882 15.6928 8.17688 11.9363 11.933C8.17914 15.6884 6.30056 20.2719 6.30056 25.6835C6.30056 31.0951 8.17914 35.6786 11.9363 39.4341C15.6928 43.1902 20.2775 45.0682 25.6906 45.0682Z" fill="white"/>
<path d="M25.6906 45.0682C31.1037 45.0682 35.6885 43.1902 39.4449 39.4341C43.2021 35.6786 45.0807 31.0951 45.0807 25.6835C45.0807 20.2719 43.2021 15.6884 39.4449 11.933C35.6885 8.17688 31.1037 6.29882 25.6906 6.29882C20.2775 6.29882 15.6928 8.17688 11.9363 11.933C8.17914 15.6884 6.30056 20.2719 6.30056 25.6835C6.30056 31.0951 8.17914 35.6786 11.9363 39.4341C15.6928 43.1902 20.2775 45.0682 25.6906 45.0682Z" fill="white"/>
<path d="M37.5489 37.5734L37.5486 37.5738C34.2708 40.8512 30.3261 42.4758 25.5619 42.4758C20.7977 42.4758 16.853 40.8512 13.5753 37.5738L13.575 37.5734C10.2967 34.2966 8.67188 30.3533 8.67188 25.5911C8.67188 20.8288 10.2967 16.8855 13.575 13.6087L13.5753 13.6084C16.853 10.3309 20.7977 8.70636 25.5619 8.70636C30.3261 8.70636 34.2708 10.331 37.5486 13.6084L37.5489 13.6087C40.8272 16.8855 42.452 20.8288 42.452 25.5911C42.452 30.3533 40.8272 34.2966 37.5489 37.5734Z" fill="white" stroke="#1F1F1F" stroke-width="5"/>
</svg>
