<svg width="12" height="12" viewBox="0 0 12 12" fill="none" xmlns="http://www.w3.org/2000/svg">
<path d="M5.13812 10.2734C3.70332 10.2734 2.48823 9.77593 1.49285 8.78097C0.497617 7.78587 0 6.57112 0 5.13671C0 3.7023 0.497617 2.48754 1.49285 1.49244C2.48823 0.49748 3.70332 0 5.13812 0C6.57293 0 7.78802 0.49748 8.78339 1.49244C9.77863 2.48754 10.2762 3.7023 10.2762 5.13671C10.2762 5.7366 10.1756 6.30953 9.97419 6.85552C9.77268 7.40151 9.50388 7.87638 9.16779 8.28013L11.8214 10.9324C11.9377 11.0486 11.9973 11.1947 11.9999 11.3709C12.0026 11.547 11.9431 11.6959 11.8214 11.8175C11.6997 11.9392 11.5521 12 11.3786 12C11.2052 12 11.0577 11.9392 10.936 11.8175L8.28242 9.16527C7.86231 9.51204 7.37918 9.78342 6.83305 9.97942C6.28691 10.1754 5.72193 10.2734 5.13812 10.2734ZM5.13812 9.01365C6.22074 9.01365 7.13769 8.63804 7.88899 7.88681C8.64042 7.13573 9.01613 6.21903 9.01613 5.13671C9.01613 4.05439 8.64042 3.13769 7.88899 2.3866C7.13769 1.63538 6.22074 1.25976 5.13812 1.25976C4.05551 1.25976 3.13855 1.63538 2.38726 2.3866C1.63583 3.13769 1.26011 4.05439 1.26011 5.13671C1.26011 6.21903 1.63583 7.13573 2.38726 7.88681C3.13855 8.63804 4.05551 9.01365 5.13812 9.01365Z" fill="#CFCFCF"/>
</svg>
